<?xml version="1.0" encoding="UTF-8" standalone="no"?><svg xmlns="http://www.w3.org/2000/svg" xmlns:xlink="http://www.w3.org/1999/xlink" contentStyleType="text/css" height="735px" preserveAspectRatio="none" style="width:490px;height:735px;background:#FFFFFF;" version="1.1" viewBox="0 0 490 735" width="490px" zoomAndPan="magnify"><defs/><g><!--MD5=[6eacbabadde1abc100c0f356c7aca141]
class DEPARTMENT--><g id="elem_DEPARTMENT"><rect codeLine="2" fill="#F1F1F1" height="153.6563" id="DEPARTMENT" rx="2.5" ry="2.5" style="stroke:#181818;stroke-width:0.5;" width="159" x="7" y="282"/><ellipse cx="36.85" cy="298" fill="#ADD1B2" rx="11" ry="11" style="stroke:#181818;stroke-width:1.0;"/><path d="M39.6156,293.875 Q39.7719,293.6563 39.9594,293.5469 Q40.1469,293.4375 40.3656,293.4375 Q40.7406,293.4375 40.975,293.7031 Q41.2094,293.9531 41.2094,294.5625 L41.2094,296.0156 Q41.2094,296.625 40.975,296.8906 Q40.7406,297.1563 40.3656,297.1563 Q40.0219,297.1563 39.8188,296.9531 Q39.6156,296.7656 39.5063,296.25 Q39.4594,295.8906 39.2719,295.7031 Q38.9438,295.3281 38.3344,295.1094 Q37.725,294.8906 37.1,294.8906 Q36.3344,294.8906 35.6938,295.2188 Q35.0688,295.5469 34.5688,296.2969 Q34.0844,297.0469 34.0844,298.0781 L34.0844,299.1719 Q34.0844,300.4063 34.975,301.2344 Q35.8656,302.0469 37.4594,302.0469 Q38.3969,302.0469 39.0531,301.7969 Q39.4438,301.6406 39.8656,301.2031 Q40.1313,300.9375 40.2719,300.8594 Q40.4281,300.7813 40.6313,300.7813 Q40.9594,300.7813 41.2094,301.0469 Q41.475,301.2969 41.475,301.6406 Q41.475,301.9844 41.1313,302.3906 Q40.6313,302.9688 39.8344,303.2969 Q38.7563,303.75 37.4594,303.75 Q35.9438,303.75 34.7406,303.125 Q33.7563,302.625 33.0688,301.5625 Q32.3813,300.4844 32.3813,299.2031 L32.3813,298.0469 Q32.3813,296.7188 32.9906,295.5781 Q33.6156,294.4219 34.7094,293.8125 Q35.8031,293.1875 37.0375,293.1875 Q37.7719,293.1875 38.4125,293.3594 Q39.0688,293.5156 39.6156,293.875 Z " fill="#000000"/><text fill="#000000" font-family="sans-serif" font-size="14" lengthAdjust="spacing" textLength="94" x="54.15" y="303.7285">DEPARTMENT</text><line style="stroke:#181818;stroke-width:0.5;" x1="8" x2="165" y1="314" y2="314"/><ellipse cx="18" cy="328.3047" fill="none" rx="3" ry="3" style="stroke:#038048;stroke-width:1.0;"/><text fill="#000000" font-family="sans-serif" font-size="14" lengthAdjust="spacing" textLength="41" x="27" y="332.5332">Deptld</text><ellipse cx="18" cy="345.9141" fill="none" rx="3" ry="3" style="stroke:#038048;stroke-width:1.0;"/><text fill="#000000" font-family="sans-serif" font-size="14" lengthAdjust="spacing" textLength="66" x="27" y="350.1426">DeptName</text><ellipse cx="18" cy="363.5234" fill="none" rx="3" ry="3" style="stroke:#038048;stroke-width:1.0;"/><text fill="#000000" font-family="sans-serif" font-size="14" lengthAdjust="spacing" textLength="82" x="27" y="367.752">NoOfcourses</text><ellipse cx="18" cy="381.1328" fill="none" rx="3" ry="3" style="stroke:#038048;stroke-width:1.0;"/><text fill="#000000" font-family="sans-serif" font-size="14" lengthAdjust="spacing" textLength="75" x="27" y="385.3613">NoofFaculty</text><line style="stroke:#181818;stroke-width:0.5;" x1="8" x2="165" y1="392.4375" y2="392.4375"/><ellipse cx="18" cy="406.7422" fill="#84BE84" rx="3" ry="3" style="stroke:#038048;stroke-width:1.0;"/><text fill="#000000" font-family="sans-serif" font-size="14" lengthAdjust="spacing" textLength="133" x="27" y="410.9707">addnewDepartment()</text><ellipse cx="18" cy="424.3516" fill="#84BE84" rx="3" ry="3" style="stroke:#038048;stroke-width:1.0;"/><text fill="#000000" font-family="sans-serif" font-size="14" lengthAdjust="spacing" textLength="127" x="27" y="428.5801">updateDepanment()</text></g><!--MD5=[198186f9fcc9add1803581ad2374c930]
class COURSES--><g id="elem_COURSES"><rect codeLine="11" fill="#F1F1F1" height="188.875" id="COURSES" rx="2.5" ry="2.5" style="stroke:#181818;stroke-width:0.5;" width="141" x="166" y="540"/><ellipse cx="199.9" cy="556" fill="#ADD1B2" rx="11" ry="11" style="stroke:#181818;stroke-width:1.0;"/><path d="M202.6656,551.875 Q202.8219,551.6563 203.0094,551.5469 Q203.1969,551.4375 203.4156,551.4375 Q203.7906,551.4375 204.025,551.7031 Q204.2594,551.9531 204.2594,552.5625 L204.2594,554.0156 Q204.2594,554.625 204.025,554.8906 Q203.7906,555.1563 203.4156,555.1563 Q203.0719,555.1563 202.8688,554.9531 Q202.6656,554.7656 202.5563,554.25 Q202.5094,553.8906 202.3219,553.7031 Q201.9938,553.3281 201.3844,553.1094 Q200.775,552.8906 200.15,552.8906 Q199.3844,552.8906 198.7438,553.2188 Q198.1188,553.5469 197.6188,554.2969 Q197.1344,555.0469 197.1344,556.0781 L197.1344,557.1719 Q197.1344,558.4063 198.025,559.2344 Q198.9156,560.0469 200.5094,560.0469 Q201.4469,560.0469 202.1031,559.7969 Q202.4938,559.6406 202.9156,559.2031 Q203.1813,558.9375 203.3219,558.8594 Q203.4781,558.7813 203.6813,558.7813 Q204.0094,558.7813 204.2594,559.0469 Q204.525,559.2969 204.525,559.6406 Q204.525,559.9844 204.1813,560.3906 Q203.6813,560.9688 202.8844,561.2969 Q201.8063,561.75 200.5094,561.75 Q198.9938,561.75 197.7906,561.125 Q196.8063,560.625 196.1188,559.5625 Q195.4313,558.4844 195.4313,557.2031 L195.4313,556.0469 Q195.4313,554.7188 196.0406,553.5781 Q196.6656,552.4219 197.7594,551.8125 Q198.8531,551.1875 200.0875,551.1875 Q200.8219,551.1875 201.4625,551.3594 Q202.1188,551.5156 202.6656,551.875 Z " fill="#000000"/><text fill="#000000" font-family="sans-serif" font-size="14" lengthAdjust="spacing" textLength="67" x="218.1" y="561.7285">COURSES</text><line style="stroke:#181818;stroke-width:0.5;" x1="167" x2="306" y1="572" y2="572"/><ellipse cx="177" cy="586.3047" fill="none" rx="3" ry="3" style="stroke:#038048;stroke-width:1.0;"/><text fill="#000000" font-family="sans-serif" font-size="14" lengthAdjust="spacing" textLength="59" x="186" y="590.5332">Cousesld</text><ellipse cx="177" cy="603.9141" fill="none" rx="3" ry="3" style="stroke:#038048;stroke-width:1.0;"/><text fill="#000000" font-family="sans-serif" font-size="14" lengthAdjust="spacing" textLength="84" x="186" y="608.1426">CourseNarne</text><ellipse cx="177" cy="621.5234" fill="none" rx="3" ry="3" style="stroke:#038048;stroke-width:1.0;"/><text fill="#000000" font-family="sans-serif" font-size="14" lengthAdjust="spacing" textLength="96" x="186" y="625.752">CourseDurajon</text><ellipse cx="177" cy="639.1328" fill="none" rx="3" ry="3" style="stroke:#038048;stroke-width:1.0;"/><text fill="#000000" font-family="sans-serif" font-size="14" lengthAdjust="spacing" textLength="71" x="186" y="643.3613">CourseFee</text><ellipse cx="177" cy="656.7422" fill="none" rx="3" ry="3" style="stroke:#038048;stroke-width:1.0;"/><text fill="#000000" font-family="sans-serif" font-size="14" lengthAdjust="spacing" textLength="115" x="186" y="660.9707">Coursecoordnator</text><line style="stroke:#181818;stroke-width:0.5;" x1="167" x2="306" y1="668.0469" y2="668.0469"/><ellipse cx="177" cy="682.3516" fill="#84BE84" rx="3" ry="3" style="stroke:#038048;stroke-width:1.0;"/><text fill="#000000" font-family="sans-serif" font-size="14" lengthAdjust="spacing" textLength="80" x="186" y="686.5801">addCourse()</text><ellipse cx="177" cy="699.9609" fill="#84BE84" rx="3" ry="3" style="stroke:#038048;stroke-width:1.0;"/><text fill="#000000" font-family="sans-serif" font-size="14" lengthAdjust="spacing" textLength="100" x="186" y="704.1895">updateCourse()</text><ellipse cx="177" cy="717.5703" fill="#84BE84" rx="3" ry="3" style="stroke:#038048;stroke-width:1.0;"/><text fill="#000000" font-family="sans-serif" font-size="14" lengthAdjust="spacing" textLength="103" x="186" y="721.7988">removeCourse()</text></g><!--MD5=[74a2d71a8122cc082d0d49061855fb3b]
class FACULTY--><g id="elem_FACULTY"><rect codeLine="22" fill="#F1F1F1" height="171.2656" id="FACULTY" rx="2.5" ry="2.5" style="stroke:#181818;stroke-width:0.5;" width="126" x="98.5" y="7"/><ellipse cx="127.45" cy="23" fill="#ADD1B2" rx="11" ry="11" style="stroke:#181818;stroke-width:1.0;"/><path d="M130.2156,18.875 Q130.3719,18.6563 130.5594,18.5469 Q130.7469,18.4375 130.9656,18.4375 Q131.3406,18.4375 131.575,18.7031 Q131.8094,18.9531 131.8094,19.5625 L131.8094,21.0156 Q131.8094,21.625 131.575,21.8906 Q131.3406,22.1563 130.9656,22.1563 Q130.6219,22.1563 130.4188,21.9531 Q130.2156,21.7656 130.1063,21.25 Q130.0594,20.8906 129.8719,20.7031 Q129.5438,20.3281 128.9344,20.1094 Q128.325,19.8906 127.7,19.8906 Q126.9344,19.8906 126.2938,20.2188 Q125.6688,20.5469 125.1688,21.2969 Q124.6844,22.0469 124.6844,23.0781 L124.6844,24.1719 Q124.6844,25.4063 125.575,26.2344 Q126.4656,27.0469 128.0594,27.0469 Q128.9969,27.0469 129.6531,26.7969 Q130.0438,26.6406 130.4656,26.2031 Q130.7313,25.9375 130.8719,25.8594 Q131.0281,25.7813 131.2313,25.7813 Q131.5594,25.7813 131.8094,26.0469 Q132.075,26.2969 132.075,26.6406 Q132.075,26.9844 131.7313,27.3906 Q131.2313,27.9688 130.4344,28.2969 Q129.3563,28.75 128.0594,28.75 Q126.5438,28.75 125.3406,28.125 Q124.3563,27.625 123.6688,26.5625 Q122.9813,25.4844 122.9813,24.2031 L122.9813,23.0469 Q122.9813,21.7188 123.5906,20.5781 Q124.2156,19.4219 125.3094,18.8125 Q126.4031,18.1875 127.6375,18.1875 Q128.3719,18.1875 129.0125,18.3594 Q129.6688,18.5156 130.2156,18.875 Z " fill="#000000"/><text fill="#000000" font-family="sans-serif" font-size="14" lengthAdjust="spacing" textLength="63" x="144.55" y="28.7285">FACULTY</text><line style="stroke:#181818;stroke-width:0.5;" x1="99.5" x2="223.5" y1="39" y2="39"/><ellipse cx="109.5" cy="53.3047" fill="none" rx="3" ry="3" style="stroke:#038048;stroke-width:1.0;"/><text fill="#000000" font-family="sans-serif" font-size="14" lengthAdjust="spacing" textLength="59" x="118.5" y="57.5332">FacultylD</text><ellipse cx="109.5" cy="70.9141" fill="none" rx="3" ry="3" style="stroke:#038048;stroke-width:1.0;"/><text fill="#000000" font-family="sans-serif" font-size="14" lengthAdjust="spacing" textLength="82" x="118.5" y="75.1426">FacultyName</text><ellipse cx="109.5" cy="88.5234" fill="none" rx="3" ry="3" style="stroke:#038048;stroke-width:1.0;"/><text fill="#000000" font-family="sans-serif" font-size="14" lengthAdjust="spacing" textLength="66" x="118.5" y="92.752">ContactNo</text><ellipse cx="109.5" cy="106.1328" fill="none" rx="3" ry="3" style="stroke:#038048;stroke-width:1.0;"/><text fill="#000000" font-family="sans-serif" font-size="14" lengthAdjust="spacing" textLength="47" x="118.5" y="110.3613">Subject</text><ellipse cx="109.5" cy="123.7422" fill="none" rx="3" ry="3" style="stroke:#038048;stroke-width:1.0;"/><text fill="#000000" font-family="sans-serif" font-size="14" lengthAdjust="spacing" textLength="70" x="118.5" y="127.9707">addFaculty</text><line style="stroke:#181818;stroke-width:0.5;" x1="99.5" x2="223.5" y1="135.0469" y2="135.0469"/><ellipse cx="109.5" cy="149.3516" fill="#84BE84" rx="3" ry="3" style="stroke:#038048;stroke-width:1.0;"/><text fill="#000000" font-family="sans-serif" font-size="14" lengthAdjust="spacing" textLength="100" x="118.5" y="153.5801">updateFaculty()</text><ellipse cx="109.5" cy="166.9609" fill="#84BE84" rx="3" ry="3" style="stroke:#038048;stroke-width:1.0;"/><text fill="#000000" font-family="sans-serif" font-size="14" lengthAdjust="spacing" textLength="95" x="118.5" y="171.1895">deleteFaculty()</text></g><!--MD5=[e49abcd5219966d7355eba47b44d26e8]
class STUDENT--><g id="elem_STUDENT"><rect codeLine="32" fill="#F1F1F1" height="206.4844" id="STUDENT" rx="2.5" ry="2.5" style="stroke:#181818;stroke-width:0.5;" width="152" x="331.5" y="256"/><ellipse cx="371.7" cy="272" fill="#ADD1B2" rx="11" ry="11" style="stroke:#181818;stroke-width:1.0;"/><path d="M374.4656,267.875 Q374.6219,267.6563 374.8094,267.5469 Q374.9969,267.4375 375.2156,267.4375 Q375.5906,267.4375 375.825,267.7031 Q376.0594,267.9531 376.0594,268.5625 L376.0594,270.0156 Q376.0594,270.625 375.825,270.8906 Q375.5906,271.1563 375.2156,271.1563 Q374.8719,271.1563 374.6688,270.9531 Q374.4656,270.7656 374.3563,270.25 Q374.3094,269.8906 374.1219,269.7031 Q373.7938,269.3281 373.1844,269.1094 Q372.575,268.8906 371.95,268.8906 Q371.1844,268.8906 370.5438,269.2188 Q369.9188,269.5469 369.4188,270.2969 Q368.9344,271.0469 368.9344,272.0781 L368.9344,273.1719 Q368.9344,274.4063 369.825,275.2344 Q370.7156,276.0469 372.3094,276.0469 Q373.2469,276.0469 373.9031,275.7969 Q374.2938,275.6406 374.7156,275.2031 Q374.9813,274.9375 375.1219,274.8594 Q375.2781,274.7813 375.4813,274.7813 Q375.8094,274.7813 376.0594,275.0469 Q376.325,275.2969 376.325,275.6406 Q376.325,275.9844 375.9813,276.3906 Q375.4813,276.9688 374.6844,277.2969 Q373.6063,277.75 372.3094,277.75 Q370.7938,277.75 369.5906,277.125 Q368.6063,276.625 367.9188,275.5625 Q367.2313,274.4844 367.2313,273.2031 L367.2313,272.0469 Q367.2313,270.7188 367.8406,269.5781 Q368.4656,268.4219 369.5594,267.8125 Q370.6531,267.1875 371.8875,267.1875 Q372.6219,267.1875 373.2625,267.3594 Q373.9188,267.5156 374.4656,267.875 Z " fill="#000000"/><text fill="#000000" font-family="sans-serif" font-size="14" lengthAdjust="spacing" textLength="64" x="391.3" y="277.7285">STUDENT</text><line style="stroke:#181818;stroke-width:0.5;" x1="332.5" x2="482.5" y1="288" y2="288"/><ellipse cx="342.5" cy="302.3047" fill="none" rx="3" ry="3" style="stroke:#038048;stroke-width:1.0;"/><text fill="#000000" font-family="sans-serif" font-size="14" lengthAdjust="spacing" textLength="60" x="351.5" y="306.5332">Studentld</text><ellipse cx="342.5" cy="319.9141" fill="none" rx="3" ry="3" style="stroke:#038048;stroke-width:1.0;"/><text fill="#000000" font-family="sans-serif" font-size="14" lengthAdjust="spacing" textLength="85" x="351.5" y="324.1426">StudentName</text><ellipse cx="342.5" cy="337.5234" fill="none" rx="3" ry="3" style="stroke:#038048;stroke-width:1.0;"/><text fill="#000000" font-family="sans-serif" font-size="14" lengthAdjust="spacing" textLength="81" x="351.5" y="341.752">QuaEfication</text><ellipse cx="342.5" cy="355.1328" fill="none" rx="3" ry="3" style="stroke:#038048;stroke-width:1.0;"/><text fill="#000000" font-family="sans-serif" font-size="14" lengthAdjust="spacing" textLength="65" x="351.5" y="359.3613">Contactno</text><ellipse cx="342.5" cy="372.7422" fill="none" rx="3" ry="3" style="stroke:#038048;stroke-width:1.0;"/><text fill="#000000" font-family="sans-serif" font-size="14" lengthAdjust="spacing" textLength="45" x="351.5" y="376.9707">EmailId</text><ellipse cx="342.5" cy="390.3516" fill="none" rx="3" ry="3" style="stroke:#038048;stroke-width:1.0;"/><text fill="#000000" font-family="sans-serif" font-size="14" lengthAdjust="spacing" textLength="52" x="351.5" y="394.5801">Address</text><line style="stroke:#181818;stroke-width:0.5;" x1="332.5" x2="482.5" y1="401.6563" y2="401.6563"/><ellipse cx="342.5" cy="415.9609" fill="#84BE84" rx="3" ry="3" style="stroke:#038048;stroke-width:1.0;"/><text fill="#000000" font-family="sans-serif" font-size="14" lengthAdjust="spacing" textLength="108" x="351.5" y="420.1895">VewStudentInfo()</text><ellipse cx="342.5" cy="433.5703" fill="#84BE84" rx="3" ry="3" style="stroke:#038048;stroke-width:1.0;"/><text fill="#000000" font-family="sans-serif" font-size="14" lengthAdjust="spacing" textLength="121" x="351.5" y="437.7988">deleteStudentInfo()</text><ellipse cx="342.5" cy="451.1797" fill="#84BE84" rx="3" ry="3" style="stroke:#038048;stroke-width:1.0;"/><text fill="#000000" font-family="sans-serif" font-size="14" lengthAdjust="spacing" textLength="126" x="351.5" y="455.4082">updateStudentInfo()</text></g><!--MD5=[b543c724a9a2d45b3a33d9012b290ecc]
link DEPARTMENT to COURSES--><g id="link_DEPARTMENT_COURSES"><path codeLine="44" d="M125.94,436.22 C138.41,459.95 152.37,486.15 165.5,510 C170.87,519.75 176.54,529.89 182.25,539.98 " fill="none" id="DEPARTMENT-COURSES" style="stroke:#181818;stroke-width:1.0;"/><ellipse cx="171.5" cy="501.6758" fill="none" rx="3" ry="3" style="stroke:#038048;stroke-width:1.0;"/><text fill="#000000" font-family="sans-serif" font-size="13" lengthAdjust="spacing" textLength="31" x="178.5" y="506.4951">offers</text><text fill="#000000" font-family="sans-serif" font-size="13" lengthAdjust="spacing" textLength="20" x="108.47" y="457.0686">1..*</text><text fill="#000000" font-family="sans-serif" font-size="13" lengthAdjust="spacing" textLength="20" x="156.9293" y="529.0049">1..*</text></g><!--MD5=[0972e2067960d7835b2578aaabf7a0d2]
link FACULTY to DEPARTMENT--><g id="link_FACULTY_DEPARTMENT"><path codeLine="45" d="M137.46,178.28 C128.03,211.52 117.3,249.38 108.12,281.75 " fill="none" id="FACULTY-DEPARTMENT" style="stroke:#181818;stroke-width:1.0;"/><ellipse cx="134.5" cy="217.6758" fill="none" rx="3" ry="3" style="stroke:#038048;stroke-width:1.0;"/><text fill="#000000" font-family="sans-serif" font-size="13" lengthAdjust="spacing" textLength="63" x="141.5" y="222.4951">consists of</text><text fill="#000000" font-family="sans-serif" font-size="13" lengthAdjust="spacing" textLength="20" x="114.5347" y="199.838">1..*</text><text fill="#000000" font-family="sans-serif" font-size="13" lengthAdjust="spacing" textLength="20" x="89.2275" y="271.1529">1..*</text></g><!--MD5=[8520d0c54df6c2bda3005047c02b3b98]
link FACULTY to COURSES--><g id="link_FACULTY_COURSES"><path codeLine="46" d="M204.12,178.23 C207.83,188.08 211.09,198.14 213.5,208 C240.86,319.74 243.47,452.72 241.3,539.92 " fill="none" id="FACULTY-COURSES" style="stroke:#181818;stroke-width:1.0;"/><ellipse cx="248.5" cy="359.6758" fill="none" rx="3" ry="3" style="stroke:#038048;stroke-width:1.0;"/><text fill="#000000" font-family="sans-serif" font-size="13" lengthAdjust="spacing" textLength="46" x="255.5" y="364.4951">teaches</text><text fill="#000000" font-family="sans-serif" font-size="13" lengthAdjust="spacing" textLength="20" x="186.9233" y="199.7837">1..*</text><text fill="#000000" font-family="sans-serif" font-size="13" lengthAdjust="spacing" textLength="20" x="220.8856" y="529.2598">1..*</text></g><!--MD5=[c2317eb8e288615d01bef6eab364e2fb]
link STUDENT to COURSES--><g id="link_STUDENT_COURSES"><path codeLine="47" d="M343.58,462.23 C327.65,487.72 310.64,514.92 294.98,539.97 " fill="none" id="STUDENT-COURSES" style="stroke:#181818;stroke-width:1.0;"/><ellipse cx="327.5" cy="501.6758" fill="none" rx="3" ry="3" style="stroke:#038048;stroke-width:1.0;"/><text fill="#000000" font-family="sans-serif" font-size="13" lengthAdjust="spacing" textLength="38" x="334.5" y="506.4951">enrolls</text><text fill="#000000" font-family="sans-serif" font-size="13" lengthAdjust="spacing" textLength="20" x="318.1515" y="483.8887">1..*</text><text fill="#000000" font-family="sans-serif" font-size="13" lengthAdjust="spacing" textLength="20" x="278.9948" y="528.9941">1..*</text></g><!--MD5=[836f54653053414a58154bb7e8f0c26f]
@startuml

class DEPARTMENT {
    +Deptld
    +DeptName
    +NoOfcourses
    +NoofFaculty
    +addnewDepartment()
    +updateDepanment()
}

class COURSES{
    +Cousesld
    +CourseNarne
    +CourseDurajon
    +CourseFee
    +Coursecoordnator
    +addCourse()
    +updateCourse()
    +removeCourse()
}

class FACULTY{
    +FacultylD
    +FacultyName
    +ContactNo
    +Subject
    +addFaculty
    +updateFaculty()
    +deleteFaculty()
}

class STUDENT{
    +Studentld
    +StudentName
    +QuaEfication
    +Contactno
    +EmailId
    +Address
    +VewStudentInfo()
    +deleteStudentInfo()
    +updateStudentInfo()
}

DEPARTMENT "1..*" - - "1..*" COURSES : +offers
FACULTY "1..*" - - "1..*" DEPARTMENT : +consists of
FACULTY "1..*" - - "1..*" COURSES : +teaches
STUDENT "1..*" - - "1..*" COURSES  : +enrolls

@enduml

PlantUML version 1.2022.7(Mon Aug 22 22:31:30 IST 2022)
(GPL source distribution)
Java Runtime: Java(TM) SE Runtime Environment
JVM: Java HotSpot(TM) 64-Bit Server VM
Default Encoding: UTF-8
Language: en
Country: IN
--></g></svg>