<?xml version="1.0" encoding="UTF-8" standalone="no"?><svg xmlns="http://www.w3.org/2000/svg" xmlns:xlink="http://www.w3.org/1999/xlink" contentStyleType="text/css" height="699px" preserveAspectRatio="none" style="width:212px;height:699px;background:#FFFFFF;" version="1.1" viewBox="0 0 212 699" width="212px" zoomAndPan="magnify"><defs/><g><!--MD5=[3ff1492eb26f0e572819cc08bc888749]
class PROJECTS--><g id="elem_PROJECTS"><rect codeLine="1" fill="#F1F1F1" height="206.4844" id="PROJECTS" rx="2.5" ry="2.5" style="stroke:#181818;stroke-width:0.5;" width="131" x="7" y="7"/><ellipse cx="33.7" cy="23" fill="#ADD1B2" rx="11" ry="11" style="stroke:#181818;stroke-width:1.0;"/><path d="M36.4656,18.875 Q36.6219,18.6563 36.8094,18.5469 Q36.9969,18.4375 37.2156,18.4375 Q37.5906,18.4375 37.825,18.7031 Q38.0594,18.9531 38.0594,19.5625 L38.0594,21.0156 Q38.0594,21.625 37.825,21.8906 Q37.5906,22.1563 37.2156,22.1563 Q36.8719,22.1563 36.6688,21.9531 Q36.4656,21.7656 36.3563,21.25 Q36.3094,20.8906 36.1219,20.7031 Q35.7938,20.3281 35.1844,20.1094 Q34.575,19.8906 33.95,19.8906 Q33.1844,19.8906 32.5438,20.2188 Q31.9188,20.5469 31.4188,21.2969 Q30.9344,22.0469 30.9344,23.0781 L30.9344,24.1719 Q30.9344,25.4063 31.825,26.2344 Q32.7156,27.0469 34.3094,27.0469 Q35.2469,27.0469 35.9031,26.7969 Q36.2938,26.6406 36.7156,26.2031 Q36.9813,25.9375 37.1219,25.8594 Q37.2781,25.7813 37.4813,25.7813 Q37.8094,25.7813 38.0594,26.0469 Q38.325,26.2969 38.325,26.6406 Q38.325,26.9844 37.9813,27.3906 Q37.4813,27.9688 36.6844,28.2969 Q35.6063,28.75 34.3094,28.75 Q32.7938,28.75 31.5906,28.125 Q30.6063,27.625 29.9188,26.5625 Q29.2313,25.4844 29.2313,24.2031 L29.2313,23.0469 Q29.2313,21.7188 29.8406,20.5781 Q30.4656,19.4219 31.5594,18.8125 Q32.6531,18.1875 33.8875,18.1875 Q34.6219,18.1875 35.2625,18.3594 Q35.9188,18.5156 36.4656,18.875 Z " fill="#000000"/><text fill="#000000" font-family="sans-serif" font-size="14" lengthAdjust="spacing" textLength="73" x="50.3" y="28.7285">PROJECTS</text><line style="stroke:#181818;stroke-width:0.5;" x1="8" x2="137" y1="39" y2="39"/><ellipse cx="18" cy="53.3047" fill="none" rx="3" ry="3" style="stroke:#038048;stroke-width:1.0;"/><text fill="#000000" font-family="sans-serif" font-size="14" lengthAdjust="spacing" textLength="80" x="27" y="57.5332">ProjectName</text><ellipse cx="18" cy="70.9141" fill="none" rx="3" ry="3" style="stroke:#038048;stroke-width:1.0;"/><text fill="#000000" font-family="sans-serif" font-size="14" lengthAdjust="spacing" textLength="45" x="27" y="75.1426">Budget</text><ellipse cx="18" cy="88.5234" fill="none" rx="3" ry="3" style="stroke:#038048;stroke-width:1.0;"/><text fill="#000000" font-family="sans-serif" font-size="14" lengthAdjust="spacing" textLength="65" x="27" y="92.752">NoOfitems</text><ellipse cx="18" cy="106.1328" fill="none" rx="3" ry="3" style="stroke:#038048;stroke-width:1.0;"/><text fill="#000000" font-family="sans-serif" font-size="14" lengthAdjust="spacing" textLength="58" x="27" y="110.3613">Members</text><ellipse cx="18" cy="123.7422" fill="none" rx="3" ry="3" style="stroke:#038048;stroke-width:1.0;"/><text fill="#000000" font-family="sans-serif" font-size="14" lengthAdjust="spacing" textLength="88" x="27" y="127.9707">Prjectduedate</text><ellipse cx="18" cy="141.3516" fill="none" rx="3" ry="3" style="stroke:#038048;stroke-width:1.0;"/><text fill="#000000" font-family="sans-serif" font-size="14" lengthAdjust="spacing" textLength="98" x="27" y="145.5801">ProjectDuration</text><line style="stroke:#181818;stroke-width:0.5;" x1="8" x2="137" y1="152.6563" y2="152.6563"/><ellipse cx="18" cy="166.9609" fill="#84BE84" rx="3" ry="3" style="stroke:#038048;stroke-width:1.0;"/><text fill="#000000" font-family="sans-serif" font-size="14" lengthAdjust="spacing" textLength="85" x="27" y="171.1895">addProjects()</text><ellipse cx="18" cy="184.5703" fill="#84BE84" rx="3" ry="3" style="stroke:#038048;stroke-width:1.0;"/><text fill="#000000" font-family="sans-serif" font-size="14" lengthAdjust="spacing" textLength="105" x="27" y="188.7988">updateProjects()</text><ellipse cx="18" cy="202.1797" fill="#84BE84" rx="3" ry="3" style="stroke:#038048;stroke-width:1.0;"/><text fill="#000000" font-family="sans-serif" font-size="14" lengthAdjust="spacing" textLength="100" x="27" y="206.4082">deleteProjects()</text></g><!--MD5=[b250ef2ff941a7fc3bb436e0445c5db3]
class CLIENTS--><g id="elem_CLIENTS"><rect codeLine="13" fill="#F1F1F1" height="188.875" id="CLIENTS" rx="2.5" ry="2.5" style="stroke:#181818;stroke-width:0.5;" width="119" x="13" y="504"/><ellipse cx="41.5" cy="520" fill="#ADD1B2" rx="11" ry="11" style="stroke:#181818;stroke-width:1.0;"/><path d="M44.2656,515.875 Q44.4219,515.6563 44.6094,515.5469 Q44.7969,515.4375 45.0156,515.4375 Q45.3906,515.4375 45.625,515.7031 Q45.8594,515.9531 45.8594,516.5625 L45.8594,518.0156 Q45.8594,518.625 45.625,518.8906 Q45.3906,519.1563 45.0156,519.1563 Q44.6719,519.1563 44.4688,518.9531 Q44.2656,518.7656 44.1563,518.25 Q44.1094,517.8906 43.9219,517.7031 Q43.5938,517.3281 42.9844,517.1094 Q42.375,516.8906 41.75,516.8906 Q40.9844,516.8906 40.3438,517.2188 Q39.7188,517.5469 39.2188,518.2969 Q38.7344,519.0469 38.7344,520.0781 L38.7344,521.1719 Q38.7344,522.4063 39.625,523.2344 Q40.5156,524.0469 42.1094,524.0469 Q43.0469,524.0469 43.7031,523.7969 Q44.0938,523.6406 44.5156,523.2031 Q44.7813,522.9375 44.9219,522.8594 Q45.0781,522.7813 45.2813,522.7813 Q45.6094,522.7813 45.8594,523.0469 Q46.125,523.2969 46.125,523.6406 Q46.125,523.9844 45.7813,524.3906 Q45.2813,524.9688 44.4844,525.2969 Q43.4063,525.75 42.1094,525.75 Q40.5938,525.75 39.3906,525.125 Q38.4063,524.625 37.7188,523.5625 Q37.0313,522.4844 37.0313,521.2031 L37.0313,520.0469 Q37.0313,518.7188 37.6406,517.5781 Q38.2656,516.4219 39.3594,515.8125 Q40.4531,515.1875 41.6875,515.1875 Q42.4219,515.1875 43.0625,515.3594 Q43.7188,515.5156 44.2656,515.875 Z " fill="#000000"/><text fill="#000000" font-family="sans-serif" font-size="14" lengthAdjust="spacing" textLength="57" x="58.5" y="525.7285">CLIENTS</text><line style="stroke:#181818;stroke-width:0.5;" x1="14" x2="131" y1="536" y2="536"/><ellipse cx="24" cy="550.3047" fill="none" rx="3" ry="3" style="stroke:#038048;stroke-width:1.0;"/><text fill="#000000" font-family="sans-serif" font-size="14" lengthAdjust="spacing" textLength="47" x="33" y="554.5332">ClientId</text><ellipse cx="24" cy="567.9141" fill="none" rx="3" ry="3" style="stroke:#038048;stroke-width:1.0;"/><text fill="#000000" font-family="sans-serif" font-size="14" lengthAdjust="spacing" textLength="72" x="33" y="572.1426">ClientName</text><ellipse cx="24" cy="585.5234" fill="none" rx="3" ry="3" style="stroke:#038048;stroke-width:1.0;"/><text fill="#000000" font-family="sans-serif" font-size="14" lengthAdjust="spacing" textLength="45" x="33" y="589.752">Emailid</text><ellipse cx="24" cy="603.1328" fill="none" rx="3" ry="3" style="stroke:#038048;stroke-width:1.0;"/><text fill="#000000" font-family="sans-serif" font-size="14" lengthAdjust="spacing" textLength="52" x="33" y="607.3613">Address</text><ellipse cx="24" cy="620.7422" fill="none" rx="3" ry="3" style="stroke:#038048;stroke-width:1.0;"/><text fill="#000000" font-family="sans-serif" font-size="14" lengthAdjust="spacing" textLength="66" x="33" y="624.9707">ContactNo</text><line style="stroke:#181818;stroke-width:0.5;" x1="14" x2="131" y1="632.0469" y2="632.0469"/><ellipse cx="24" cy="646.3516" fill="#84BE84" rx="3" ry="3" style="stroke:#038048;stroke-width:1.0;"/><text fill="#000000" font-family="sans-serif" font-size="14" lengthAdjust="spacing" textLength="70" x="33" y="650.5801">addClient()</text><ellipse cx="24" cy="663.9609" fill="#84BE84" rx="3" ry="3" style="stroke:#038048;stroke-width:1.0;"/><text fill="#000000" font-family="sans-serif" font-size="14" lengthAdjust="spacing" textLength="90" x="33" y="668.1895">updateClient()</text><ellipse cx="24" cy="681.5703" fill="#84BE84" rx="3" ry="3" style="stroke:#038048;stroke-width:1.0;"/><text fill="#000000" font-family="sans-serif" font-size="14" lengthAdjust="spacing" textLength="93" x="33" y="685.7988">removeClient()</text></g><!--MD5=[674b9ab2f4df2f29e00d2194ad20e223]
class EMPLOYEE--><g id="elem_EMPLOYEE"><rect codeLine="24" fill="#F1F1F1" height="171.2656" id="EMPLOYEE" rx="2.5" ry="2.5" style="stroke:#181818;stroke-width:0.5;" width="142" x="63.5" y="273"/><ellipse cx="94.25" cy="289" fill="#ADD1B2" rx="11" ry="11" style="stroke:#181818;stroke-width:1.0;"/><path d="M97.0156,284.875 Q97.1719,284.6563 97.3594,284.5469 Q97.5469,284.4375 97.7656,284.4375 Q98.1406,284.4375 98.375,284.7031 Q98.6094,284.9531 98.6094,285.5625 L98.6094,287.0156 Q98.6094,287.625 98.375,287.8906 Q98.1406,288.1563 97.7656,288.1563 Q97.4219,288.1563 97.2188,287.9531 Q97.0156,287.7656 96.9063,287.25 Q96.8594,286.8906 96.6719,286.7031 Q96.3438,286.3281 95.7344,286.1094 Q95.125,285.8906 94.5,285.8906 Q93.7344,285.8906 93.0938,286.2188 Q92.4688,286.5469 91.9688,287.2969 Q91.4844,288.0469 91.4844,289.0781 L91.4844,290.1719 Q91.4844,291.4063 92.375,292.2344 Q93.2656,293.0469 94.8594,293.0469 Q95.7969,293.0469 96.4531,292.7969 Q96.8438,292.6406 97.2656,292.2031 Q97.5313,291.9375 97.6719,291.8594 Q97.8281,291.7813 98.0313,291.7813 Q98.3594,291.7813 98.6094,292.0469 Q98.875,292.2969 98.875,292.6406 Q98.875,292.9844 98.5313,293.3906 Q98.0313,293.9688 97.2344,294.2969 Q96.1563,294.75 94.8594,294.75 Q93.3438,294.75 92.1406,294.125 Q91.1563,293.625 90.4688,292.5625 Q89.7813,291.4844 89.7813,290.2031 L89.7813,289.0469 Q89.7813,287.7188 90.3906,286.5781 Q91.0156,285.4219 92.1094,284.8125 Q93.2031,284.1875 94.4375,284.1875 Q95.1719,284.1875 95.8125,284.3594 Q96.4688,284.5156 97.0156,284.875 Z " fill="#000000"/><text fill="#000000" font-family="sans-serif" font-size="14" lengthAdjust="spacing" textLength="75" x="111.75" y="294.7285">EMPLOYEE</text><line style="stroke:#181818;stroke-width:0.5;" x1="64.5" x2="204.5" y1="305" y2="305"/><ellipse cx="74.5" cy="319.3047" fill="none" rx="3" ry="3" style="stroke:#038048;stroke-width:1.0;"/><text fill="#000000" font-family="sans-serif" font-size="14" lengthAdjust="spacing" textLength="73" x="83.5" y="323.5332">Employeeid</text><ellipse cx="74.5" cy="336.9141" fill="none" rx="3" ry="3" style="stroke:#038048;stroke-width:1.0;"/><text fill="#000000" font-family="sans-serif" font-size="14" lengthAdjust="spacing" textLength="98" x="83.5" y="341.1426">EmployeeName</text><ellipse cx="74.5" cy="354.5234" fill="none" rx="3" ry="3" style="stroke:#038048;stroke-width:1.0;"/><text fill="#000000" font-family="sans-serif" font-size="14" lengthAdjust="spacing" textLength="65" x="83.5" y="358.752">Contactno</text><ellipse cx="74.5" cy="372.1328" fill="none" rx="3" ry="3" style="stroke:#038048;stroke-width:1.0;"/><text fill="#000000" font-family="sans-serif" font-size="14" lengthAdjust="spacing" textLength="75" x="83.5" y="376.3613">Designation</text><ellipse cx="74.5" cy="389.7422" fill="none" rx="3" ry="3" style="stroke:#038048;stroke-width:1.0;"/><text fill="#000000" font-family="sans-serif" font-size="14" lengthAdjust="spacing" textLength="68" x="83.5" y="393.9707">Workingon</text><line style="stroke:#181818;stroke-width:0.5;" x1="64.5" x2="204.5" y1="401.0469" y2="401.0469"/><ellipse cx="74.5" cy="415.3516" fill="#84BE84" rx="3" ry="3" style="stroke:#038048;stroke-width:1.0;"/><text fill="#000000" font-family="sans-serif" font-size="14" lengthAdjust="spacing" textLength="96" x="83.5" y="419.5801">addEmployee()</text><ellipse cx="74.5" cy="432.9609" fill="#84BE84" rx="3" ry="3" style="stroke:#038048;stroke-width:1.0;"/><text fill="#000000" font-family="sans-serif" font-size="14" lengthAdjust="spacing" textLength="116" x="83.5" y="437.1895">updateEmployee()</text></g><!--MD5=[3dc624b5e645d98b0be7cd45c33e19da]
link PROJECTS to EMPLOYEE--><g id="link_PROJECTS_EMPLOYEE"><path codeLine="34" d="M98.17,213.04 C103.16,232.91 108.35,253.53 113.19,272.77 " fill="none" id="PROJECTS-EMPLOYEE" style="stroke:#181818;stroke-width:1.0;"/><text fill="#000000" font-family="sans-serif" font-size="13" lengthAdjust="spacing" textLength="20" x="79.3697" y="235.0315">1..*</text><text fill="#000000" font-family="sans-serif" font-size="13" lengthAdjust="spacing" textLength="20" x="90.4993" y="262.2139">1..*</text></g><!--MD5=[ef3149c28736c232fc0a84d6f9aeba5f]
link EMPLOYEE to CLIENTS--><g id="link_EMPLOYEE_CLIENTS"><path codeLine="35" d="M112.47,444.08 C107.42,463.45 102.03,484.16 96.89,503.89 " fill="none" id="EMPLOYEE-CLIENTS" style="stroke:#181818;stroke-width:1.0;"/><text fill="#000000" font-family="sans-serif" font-size="13" lengthAdjust="spacing" textLength="20" x="89.7174" y="465.6208">1..*</text><text fill="#000000" font-family="sans-serif" font-size="13" lengthAdjust="spacing" textLength="20" x="78.0367" y="493.2274">1..*</text></g><!--MD5=[01f6c4070f89ec5d208ef8f6adcbdae7]
link PROJECTS to CLIENTS--><g id="link_PROJECTS_CLIENTS"><path codeLine="36" d="M52.86,213.09 C49.79,232.89 47.11,253.54 45.5,273 C39.23,348.74 38.89,368.29 45.5,444 C47.19,463.41 50.07,484.04 53.33,503.68 " fill="none" id="PROJECTS-CLIENTS" style="stroke:#181818;stroke-width:1.0;"/><text fill="#000000" font-family="sans-serif" font-size="13" lengthAdjust="spacing" textLength="20" x="30.5907" y="235.0854">1..*</text><text fill="#000000" font-family="sans-serif" font-size="13" lengthAdjust="spacing" textLength="20" x="31.0055" y="493.0006">1..*</text></g><!--MD5=[0d4bcf2d1fb9d2051025992e2e4e88dc]
@startuml
class PROJECTS {
    +ProjectName    
    +Budget
    +NoOfitems
    +Members
    +Prjectduedate
    +ProjectDuration
    +addProjects()
    +updateProjects()
    +deleteProjects()
}

class CLIENTS{
    +ClientId
    +ClientName
    +Emailid
    +Address
    +ContactNo
    +addClient()
    +updateClient()
    +removeClient()
}

class EMPLOYEE {
    +Employeeid
    +EmployeeName
    +Contactno
    +Designation
    +Workingon
    +addEmployee()
    +updateEmployee()
}

PROJECTS "1..*" - - "1..*" EMPLOYEE 
EMPLOYEE "1..*" - - "1..*" CLIENTS
PROJECTS "1..*" - - "1..*" CLIENTS 


@enduml

PlantUML version 1.2022.7(Mon Aug 22 22:31:30 IST 2022)
(GPL source distribution)
Java Runtime: Java(TM) SE Runtime Environment
JVM: Java HotSpot(TM) 64-Bit Server VM
Default Encoding: UTF-8
Language: en
Country: IN
--></g></svg>